<?xml version="1.0" encoding="utf-8"?>
<?xml-stylesheet type="text/xsl" href="rss1.xsl"?>
<rss version="2.0" xmlns:atom="http://www.w3.org/2005/Atom" xmlns:content="http://purl.org/rss/1.0/modules/content/" xmlns:dc="http://purl.org/dc/elements/1.1/" xmlns:media="http://search.yahoo.com/mrss/">
<channel>
 <title>Getty</title>
 <link>http://www.gettyimg.com/</link>
 <atom:link href="http://www.gettyimg.com/" rel="self" type="application/rss+xml" />

 
                <item>
                <title><![CDATA[【VEVO】WEB-RiP - Saving Abel - Addicted (EXPLICIT) (VEVO-1080p-Mp3-SynE)]]></title>
                <link><![CDATA[https://sharemania.us/threads/saving-abel-addicted-explicit-vevo-1080p-mp3-syne.223268/]]></link>
                <description><![CDATA[<article>
<blockquote class="messageText SelectQuoteContainer ugc baseHtml">
<div style="text-align: center"><i><b><span style="color: #000066"><img src="https://i.postimg.cc/FRYvWfrs/03.jpg" class="bbCodeImage LbImage" alt="[​IMG]" data-url="https://i.postimg.cc/FRYvWfrs/03.jpg" style=""><br>
</span><br>
<span style="font-size: 26px"><span style="color: #000066"><span style="text-decoration: underline">Saving Abel - Addicted</span></span></span><br>
<span style="color: #000066"><br>
<div class="bbCodeBlock bbCodeVfcHH HiddenContent">
<div class="attribution type">Hidden Content:</div>
<blockquote>You must either reply or click 'Like' to see the hidden information contained here.</blockquote>
</div></span></b></i><br>
​</div>
<div class="messageTextEndMarker">&nbsp;</div>
</blockquote>
</article>]]></description>
                <author><![CDATA[Synthwave_Evans]]></author>
                </item>

                
                <item>
                <title><![CDATA[【Requests】[REQ AUD] - Massive request]]></title>
                <link><![CDATA[https://sharemania.us/threads/massive-request.223274/]]></link>
                <description><![CDATA[<article>
<blockquote class="messageText SelectQuoteContainer ugc baseHtml">
Hello. I am new here. Would anyone be kind enough to help me get the following list of releases in mp3 320?<br>
<br>
<br>
<a href="https://music.apple.com/pl/album/magnum-single/1578160728" target="_blank" class="externalLink" rel="nofollow">https://music.apple.com/pl/album/magnum-single/1578160728</a><br>
<br>
<br>
<a href="https://music.apple.com/pl/album/soba-single/1578160845" target="_blank" class="externalLink" rel="nofollow">https://music.apple.com/pl/album/soba-single/1578160845</a><br>
<br>
<a href="https://music.apple.com/pl/album/a-kapela-single/1578160611" target="_blank" class="externalLink" rel="nofollow">https://music.apple.com/pl/album/a-kapela-single/1578160611</a><br>
<br>
<br>
<a href="https://music.apple.com/pl/album/ja-sam-tvoj-dom-single/1578160927" target="_blank" class="externalLink" rel="nofollow">https://music.apple.com/pl/album/ja-sam-tvoj-dom-single/1578160927</a><br>
<br>
<br>
<a href="https://music.apple.com/pl/album/melek-single/1578162370" target="_blank" class="externalLink" rel="nofollow">https://music.apple.com/pl/album/melek-single/1578162370</a><br>
<br>
<br>
<a href="https://music.apple.com/pl/album/egomanija-single/1619491360" target="_blank" class="externalLink" rel="nofollow">https://music.apple.com/pl/album/egomanija-single/1619491360</a><br>
<br>
<br>
<a href="https://music.apple.com/pl/album/kreshtat-e-kosoves-single/1620870648" target="_blank" class="externalLink" rel="nofollow">https://music.apple.com/pl/album/kreshtat-e-kosoves-single/1620870648</a><br>
<br>
<br>
<a href="https://music.apple.com/pl/album/stikla-single/1627770133" target="_blank" class="externalLink" rel="nofollow">https://music.apple.com/pl/album/stikla-single/1627770133</a><br>
<br>
<br>
<a href="https://music.apple.com/pl/album/pucaj-mi-u-srce-single/1632432346" target="_blank" class="externalLink" rel="nofollow">https://music.apple.com/pl/album/pucaj-mi-u-srce-single/1632432346</a><br>
<br>
<br>
<a href="https://music.apple.com/pl/album/00-08-single/1641666317" target="_blank" class="externalLink" rel="nofollow">https://music.apple.com/pl/album/00-08-single/1641666317</a><br>
<br>
<br>
<a href="https://music.apple.com/pl/album/venom-single/1649699766" target="_blank" class="externalLink" rel="nofollow">https://music.apple.com/pl/album/venom-single/1649699766</a><br>
<br>
<br>
<a href="https://music.apple.com/pl/album/1001-single/1657152258" target="_blank" class="externalLink" rel="nofollow">https://music.apple.com/pl/album/1001-single/1657152258</a><br>
<br>
<br>
<a href="https://music.apple.com/pl/album/zivot-bez-nas-single/1674934207" target="_blank" class="externalLink" rel="nofollow">https://music.apple.com/pl/album/zivot-bez-nas-single/1674934207</a><br>
<br>
<br>
<br>
<a href="https://music.apple.com/us/album/sos-chapitre-3/1656763909" target="_blank" class="externalLink" rel="nofollow">https://music.apple.com/us/album/sos-chapitre-3/1656763909</a><br>
<br>
<br>
<br>
<a href="https://music.apple.com/pl/album/boginja-single/1643133842" target="_blank" class="externalLink" rel="nofollow">https://music.apple.com/pl/album/boginja-single/1643133842</a><br>
<br>
<a href="https://music.apple.com/pl/album/kontra-smer-single/1606432442" target="_blank" class="externalLink" rel="nofollow">https://music.apple.com/pl/album/kontra-smer-single/1606432442</a><br>
<br>
<a href="https://music.apple.com/pl/album/penelopa-single/1546094036" target="_blank" class="externalLink" rel="nofollow">https://music.apple.com/pl/album/penelopa-single/1546094036</a><br>
<br>
<a href="https://music.apple.com/ba/album/coco-bani-single/1690561373" target="_blank" class="externalLink" rel="nofollow">https://music.apple.com/ba/album/coco-bani-single/1690561373</a><br>
<br>
<a href="https://music.apple.com/ba/album/%C5%BEena-fudbalera-single/1690554901" target="_blank" class="externalLink" rel="nofollow">https://music.apple.com/ba/album/žena-fudbalera-single/1690554901</a><br>
<br>
<a href="https://music.apple.com/ba/album/idi-mi-dodji-mi-single/1688862124" target="_blank" class="externalLink" rel="nofollow">https://music.apple.com/ba/album/idi-mi-dodji-mi-single/1688862124</a><br>
<br>
<a href="https://music.apple.com/ba/album/top-single/1625636938" target="_blank" class="externalLink" rel="nofollow">https://music.apple.com/ba/album/top-single/1625636938</a><br>
<br>
<a href="https://music.apple.com/nl/album/boginja/1578110619" target="_blank" class="externalLink" rel="nofollow">https://music.apple.com/nl/album/boginja/1578110619</a><br>
<br>
<br>
<a href="https://music.apple.com/pl/album/los-momak/1578170783?i=1578170786" target="_blank" class="externalLink" rel="nofollow">https://music.apple.com/pl/album/los-momak/1578170783?i=1578170786</a><br>
<br>
<br>
<br>
<br>
<a href="https://music.apple.com/pl/album/balerina/1688297869" target="_blank" class="externalLink" rel="nofollow">https://music.apple.com/pl/album/balerina/1688297869</a><br>
<br>
<br>
<a href="https://music.apple.com/pl/album/balkanija/1625650819" target="_blank" class="externalLink" rel="nofollow">https://music.apple.com/pl/album/balkanija/1625650819</a><br>
<br>
<a href="https://music.apple.com/pl/album/hajde/1590336419?i=1590336425" target="_blank" class="externalLink" rel="nofollow">https://music.apple.com/pl/album/hajde/1590336419?i=1590336425</a><br>
<br>
<br>
<a href="https://music.apple.com/us/album/nad-a-single/1668788387" target="_blank" class="externalLink" rel="nofollow">https://music.apple.com/us/album/nad-a-single/1668788387</a><br>
<br>
<br>
<a href="https://music.apple.com/us/album/da-li-si-single/1579965471" target="_blank" class="externalLink" rel="nofollow">https://music.apple.com/us/album/da-li-si-single/1579965471</a><br>
<br>
<br>
<a href="https://music.apple.com/us/album/zove-single/1579956356" target="_blank" class="externalLink" rel="nofollow">https://music.apple.com/us/album/zove-single/1579956356</a><br>
<br>
<br>
<a href="https://music.apple.com/us/album/papa-single/1609044941" target="_blank" class="externalLink" rel="nofollow">https://music.apple.com/us/album/papa-single/1609044941</a><br>
<br>
<br>
<a href="https://music.apple.com/us/album/olako-single/1632808218" target="_blank" class="externalLink" rel="nofollow">https://music.apple.com/us/album/olako-single/1632808218</a><br>
<br>
<br>
<a href="https://music.apple.com/us/album/kalasi-single/1653290575" target="_blank" class="externalLink" rel="nofollow">https://music.apple.com/us/album/kalasi-single/1653290575</a><br>
<br>
<br>
<a href="https://music.apple.com/us/album/nad-a-single/1668788387" target="_blank" class="externalLink" rel="nofollow">https://music.apple.com/us/album/nad-a-single/1668788387</a><br>
<br>
<br>
<br>
<a href="https://music.apple.com/pl/album/101-propusten-poziv/1578030042?i=1578030058" target="_blank" class="externalLink" rel="nofollow">https://music.apple.com/pl/album/101-propusten-poziv/1578030042?i=1578030058</a><br>
<br>
<br>
<a href="https://music.apple.com/us/album/ka%C5%BEi-mi-single/1506875687" target="_blank" class="externalLink" rel="nofollow">https://music.apple.com/us/album/kaži-mi-single/1506875687</a><br>
<br>
<br>
<a href="https://music.apple.com/us/album/nemam-vremena-za-to-single/1242206136" target="_blank" class="externalLink" rel="nofollow">https://music.apple.com/us/album/nemam-vremena-za-to-single/1242206136</a><br>
<br>
<br>
<a href="https://music.apple.com/us/album/bez-sna-single/1450180223" target="_blank" class="externalLink" rel="nofollow">https://music.apple.com/us/album/bez-sna-single/1450180223</a><br>
<br>
<br>
<a href="https://music.apple.com/us/album/zar-ne-single/1634530729" target="_blank" class="externalLink" rel="nofollow">https://music.apple.com/us/album/zar-ne-single/1634530729</a><br>
<br>
<br>
<br>
<a href="https://music.apple.com/us/album/volim-te-single/1594263061" target="_blank" class="externalLink" rel="nofollow">https://music.apple.com/us/album/volim-te-single/1594263061</a><br>
<br>
<br>
<a href="https://music.apple.com/us/album/izvini-single/1594263272" target="_blank" class="externalLink" rel="nofollow">https://music.apple.com/us/album/izvini-single/1594263272</a><br>
<br>
<br>
<a href="https://music.apple.com/us/album/savrsen-par-single/1594272067" target="_blank" class="externalLink" rel="nofollow">https://music.apple.com/us/album/savrsen-par-single/1594272067</a><br>
<br>
<br>
<a href="https://music.apple.com/us/album/rane-single/1594263833" target="_blank" class="externalLink" rel="nofollow">https://music.apple.com/us/album/rane-single/1594263833</a><br>
<br>
<br>
<br>
<a href="https://music.apple.com/us/album/promasena-single/1594272342" target="_blank" class="externalLink" rel="nofollow">https://music.apple.com/us/album/promasena-single/1594272342</a><br>
<br>
<br>
<a href="https://music.apple.com/us/album/brani-me-single/1666985800" target="_blank" class="externalLink" rel="nofollow">https://music.apple.com/us/album/brani-me-single/1666985800</a><br>
<br>
<br>
<a href="https://music.apple.com/us/album/ubica-single/1604578624" target="_blank" class="externalLink" rel="nofollow">https://music.apple.com/us/album/ubica-single/1604578624</a><br>
<br>
<br>
<a href="https://music.apple.com/us/album/gotovo-single/1594263828" target="_blank" class="externalLink" rel="nofollow">https://music.apple.com/us/album/gotovo-single/1594263828</a><br>
<br>
<br>
<br>
<a href="https://music.apple.com/us/album/heroina-single/1594263366" target="_blank" class="externalLink" rel="nofollow">https://music.apple.com/us/album/heroina-single/1594263366</a>
<div class="messageTextEndMarker">&nbsp;</div>
</blockquote>
</article>]]></description>
                <author><![CDATA[Percivalwaylandlightwood]]></author>
                </item>

                
                <item>
                <title><![CDATA[【VEVO】WEB-RiP - Anahi - Dividida (VEVO-1080p-AAC-SynE)]]></title>
                <link><![CDATA[https://sharemania.us/threads/anahi-dividida-vevo-1080p-aac-syne.223267/]]></link>
                <description><![CDATA[<article>
<blockquote class="messageText SelectQuoteContainer ugc baseHtml">
<div style="text-align: center"><i><b><span style="color: #660033"><img src="https://i.postimg.cc/KY0pxvNg/ABC.jpg" class="bbCodeImage LbImage" alt="[​IMG]" data-url="https://i.postimg.cc/KY0pxvNg/ABC.jpg" style=""><br>
</span><br>
<span style="font-size: 26px"><span style="color: #660033"><span style="text-decoration: underline">Anahi - Dividida</span></span></span><br>
<span style="color: #660033"><br>
<div class="bbCodeBlock bbCodeVfcHH HiddenContent">
<div class="attribution type">Hidden Content:</div>
<blockquote>You must either reply or click 'Like' to see the hidden information contained here.</blockquote>
</div></span></b></i><br>
​</div>
<div class="messageTextEndMarker">&nbsp;</div>
</blockquote>
</article>]]></description>
                <author><![CDATA[Synthwave_Evans]]></author>
                </item>

                
                <item>
                <title><![CDATA[【Music Videos】Fergie &amp; Nicki Minaj - You Already Know (WEB.DL-1080p-AAC-SynE)]]></title>
                <link><![CDATA[https://sharemania.us/threads/fergie-nicki-minaj-you-already-know-web-dl-1080p-aac-syne.223270/]]></link>
                <description><![CDATA[<article>
<blockquote class="messageText SelectQuoteContainer ugc baseHtml">
<div style="text-align: center"><i><b><span style="color: #330066"><img src="https://i.postimg.cc/rpFM4n74/01.jpg" class="bbCodeImage LbImage" alt="[​IMG]" data-url="https://i.postimg.cc/rpFM4n74/01.jpg" style=""><br>
</span><br>
<span style="font-size: 26px"><span style="color: #330066"><span style="text-decoration: underline">Fergie &amp; Nicki Minaj - You Already Know</span></span></span><br>
<span style="color: #330066"><br>
<div class="bbCodeBlock bbCodeVfcHH HiddenContent">
<div class="attribution type">Hidden Content:</div>
<blockquote>You must either reply or click 'Like' to see the hidden information contained here.</blockquote>
</div></span></b></i><br>
​</div>
<div class="messageTextEndMarker">&nbsp;</div>
</blockquote>
</article>]]></description>
                <author><![CDATA[Synthwave_Evans]]></author>
                </item>

                
                <item>
                <title><![CDATA[【HD Live Performances】HDTV - Foo Fighters - Live @ Glastonbury 2023 HDTV H264 1080i DD2.0-ilya2129]]></title>
                <link><![CDATA[https://sharemania.us/threads/foo-fighters-live-glastonbury-2023-hdtv-h264-1080i-dd2-0-ilya2129.223272/]]></link>
                <description><![CDATA[<article>
<blockquote class="messageText SelectQuoteContainer ugc baseHtml">
<div style="text-align: center"><img src="https://i122.fastpic.org/big/2023/0623/b4/b37c6294354538a70aac338bdf3af5b4.png?r=1" class="bbCodeImage LbImage" alt="[​IMG]" data-url="https://i122.fastpic.org/big/2023/0623/b4/b37c6294354538a70aac338bdf3af5b4.png?r=1" style=""><br>
<br>
<a href="https://postimg.cc/K4BF082v" target="_blank" class="externalLink" rel="nofollow"><img src="https://i.postimg.cc/K4BF082v/vlcsnap-error257.png" class="bbCodeImage LbImage" alt="[​IMG]" data-url="https://i.postimg.cc/K4BF082v/vlcsnap-error257.png"></a> <a href="https://postimg.cc/GTrf7rFH" target="_blank" class="externalLink" rel="nofollow"><img src="https://i.postimg.cc/GTrf7rFH/vlcsnap-error267.png" class="bbCodeImage LbImage" alt="[​IMG]" data-url="https://i.postimg.cc/GTrf7rFH/vlcsnap-error267.png"></a> <a href="https://postimg.cc/KRcG4h6G" target="_blank" class="externalLink" rel="nofollow"><img src="https://i.postimg.cc/KRcG4h6G/vlcsnap-error378.png" class="bbCodeImage LbImage" alt="[​IMG]" data-url="https://i.postimg.cc/KRcG4h6G/vlcsnap-error378.png"></a> <a href="https://postimg.cc/YLw55QH2" target="_blank" class="externalLink" rel="nofollow"><img src="https://i.postimg.cc/YLw55QH2/vlcsnap-error412.png" class="bbCodeImage LbImage" alt="[​IMG]" data-url="https://i.postimg.cc/YLw55QH2/vlcsnap-error412.png"></a> <a href="https://postimg.cc/ftYFfk0G" target="_blank" class="externalLink" rel="nofollow"><img src="https://i.postimg.cc/ftYFfk0G/vlcsnap-error480.png" class="bbCodeImage LbImage" alt="[​IMG]" data-url="https://i.postimg.cc/ftYFfk0G/vlcsnap-error480.png"></a> <br>
<br>
<i><br>
All My Life<br>
No Son of Mine<br>
Learn to Fly<br>
Rescued<br>
The Pretender<br>
My Hero<br>
Show Me How (with Violet Grohl)<br>
Best of You<br>
Everlong (dedicated to Taylor Hawkins)<br>
</i><br>
<br>
​</div><br>
<div class="bbCodeBlock bbCodeCode">
<div class="type">Code:</div>
<pre>General
ID                                       : 1 (0x1)
Complete name                            : D:\Foo Fighters - Live @ Glastonbury 2023 HDTV H264 1080i DD2.0-ilya2129.ts
Format                                   : MPEG-TS
File size                                : 2.41 GiB
Duration                                 : 58 min 19 s
Overall bit rate mode                    : Variable
Overall bit rate                         : 5 916 kb/s
Frame rate                               : 25.000 FPS

Video
ID                                       : 302 (0x12E)
Menu ID                                  : 1 (0x1)
Format                                   : AVC
Format/Info                              : Advanced Video Codec
Format profile                           : High@L4
Format settings                          : CABAC / 4 Ref Frames
Format settings, CABAC                   : Yes
Format settings, Reference frames        : 4 frames
Codec ID                                 : 27
Duration                                 : 58 min 19 s
Bit rate                                 : 5 429 kb/s
Width                                    : 1 920 pixels
Height                                   : 1 080 pixels
Display aspect ratio                     : 16:9
Frame rate                               : 25.000 FPS
Standard                                 : Component
Color space                              : YUV
Chroma subsampling                       : 4:2:0
Bit depth                                : 8 bits
Scan type                                : MBAFF
Scan type, store method                  : Interleaved fields
Scan order                               : Top Field First
Bits/(Pixel*Frame)                       : 0.105
Stream size                              : 2.21 GiB (92%)
Color range                              : Limited
Color primaries                          : BT.709
Transfer characteristics                 : BT.709
Matrix coefficients                      : BT.709

Audio
ID                                       : 303 (0x12F)
Menu ID                                  : 1 (0x1)
Format                                   : AC-3
Format/Info                              : Audio Coding 3
Commercial name                          : Dolby Digital
Codec ID                                 : 6
Duration                                 : 58 min 19 s
Bit rate mode                            : Constant
Bit rate                                 : 192 kb/s
Channel(s)                               : 2 channels
Channel layout                           : L R
Sampling rate                            : 48.0 kHz
Frame rate                               : 31.250 FPS (1536 SPF)
Compression mode                         : Lossy
Stream size                              : 80.1 MiB (3%)
Language                                 : English
Service kind                             : Complete Main

Text #1
ID                                       : 310 (0x136)-888
Menu ID                                  : 1 (0x1)
Format                                   : Teletext Subtitle
Language                                 : English
Language, more info                      : For hearing impaired people

Text #2
ID                                       : 4503 (0x1197)
Menu ID                                  : 1 (0x1)
Format                                   : DVB Subtitle
Codec ID                                 : 6
Duration                                 : 58 min 17 s
Delay relative to video                  : -80 ms
Language                                 : English

</pre>
</div>
<div class="bbCodeBlock bbCodeVfcHH HiddenContent">
<div class="attribution type">Hidden Content:</div>
<blockquote>You must reply before you can see the hidden data contained here.</blockquote>
</div>
<div class="messageTextEndMarker">&nbsp;</div>
</blockquote>
</article>]]></description>
                <author><![CDATA[ilya2129]]></author>
                </item>

                
                <item>
                <title><![CDATA[【Music Videos】Rubi Rose - TWORK (WEB.DL-1080p-AAC-SynE)]]></title>
                <link><![CDATA[https://sharemania.us/threads/rubi-rose-twork-web-dl-1080p-aac-syne.223269/]]></link>
                <description><![CDATA[<article>
<blockquote class="messageText SelectQuoteContainer ugc baseHtml">
<div style="text-align: center"><i><b><span style="color: #b30059"><img src="https://i.postimg.cc/CKPYsCVQ/02.jpg" class="bbCodeImage LbImage" alt="[​IMG]" data-url="https://i.postimg.cc/CKPYsCVQ/02.jpg" style=""><br>
</span><br>
<span style="font-size: 26px"><span style="color: #b30059"><span style="text-decoration: underline">Rubi Rose - TWORK</span></span></span><br>
<span style="color: #b30059"><br>
<div class="bbCodeBlock bbCodeVfcHH HiddenContent">
<div class="attribution type">Hidden Content:</div>
<blockquote>You must either reply or click 'Like' to see the hidden information contained here.</blockquote>
</div></span></b></i>​</div>
<div class="messageTextEndMarker">&nbsp;</div>
</blockquote>
</article>]]></description>
                <author><![CDATA[Synthwave_Evans]]></author>
                </item>

                
                <item>
                <title><![CDATA[【HD Live Performances】WEB-RiP - Carly Rae Jepsen - Live @ Glastonbury 2023 WEB-DL H264 1080p AAC2.0-ilya2129]]></title>
                <link><![CDATA[https://sharemania.us/threads/carly-rae-jepsen-live-glastonbury-2023-web-dl-h264-1080p-aac2-0-ilya2129.223273/]]></link>
                <description><![CDATA[<article>
<blockquote class="messageText SelectQuoteContainer ugc baseHtml">
<div style="text-align: center"><img src="https://i122.fastpic.org/big/2023/0623/b4/b37c6294354538a70aac338bdf3af5b4.png?r=1" class="bbCodeImage LbImage" alt="[​IMG]" data-url="https://i122.fastpic.org/big/2023/0623/b4/b37c6294354538a70aac338bdf3af5b4.png?r=1" style=""><br>
<br>
<a href="https://postimg.cc/tZ1rBJnq" target="_blank" class="externalLink" rel="nofollow"><img src="https://i.postimg.cc/tZ1rBJnq/vlcsnap-error112.png" class="bbCodeImage LbImage" alt="[​IMG]" data-url="https://i.postimg.cc/tZ1rBJnq/vlcsnap-error112.png"></a> <a href="https://postimg.cc/1VwvZdKb" target="_blank" class="externalLink" rel="nofollow"><img src="https://i.postimg.cc/1VwvZdKb/vlcsnap-error247.png" class="bbCodeImage LbImage" alt="[​IMG]" data-url="https://i.postimg.cc/1VwvZdKb/vlcsnap-error247.png"></a> <a href="https://postimg.cc/Mv09PhHQ" target="_blank" class="externalLink" rel="nofollow"><img src="https://i.postimg.cc/Mv09PhHQ/vlcsnap-error347.png" class="bbCodeImage LbImage" alt="[​IMG]" data-url="https://i.postimg.cc/Mv09PhHQ/vlcsnap-error347.png"></a> <a href="https://postimg.cc/XXCHFZ0x" target="_blank" class="externalLink" rel="nofollow"><img src="https://i.postimg.cc/XXCHFZ0x/vlcsnap-error424.png" class="bbCodeImage LbImage" alt="[​IMG]" data-url="https://i.postimg.cc/XXCHFZ0x/vlcsnap-error424.png"></a> <a href="https://postimg.cc/pmqqxzDV" target="_blank" class="externalLink" rel="nofollow"><img src="https://i.postimg.cc/pmqqxzDV/vlcsnap-error610.png" class="bbCodeImage LbImage" alt="[​IMG]" data-url="https://i.postimg.cc/pmqqxzDV/vlcsnap-error610.png"></a> <a href="https://postimg.cc/BXfhCqS3" target="_blank" class="externalLink" rel="nofollow"><img src="https://i.postimg.cc/BXfhCqS3/vlcsnap-error632.png" class="bbCodeImage LbImage" alt="[​IMG]" data-url="https://i.postimg.cc/BXfhCqS3/vlcsnap-error632.png"></a> <a href="https://postimg.cc/9DWJvJwN" target="_blank" class="externalLink" rel="nofollow"><img src="https://i.postimg.cc/9DWJvJwN/vlcsnap-error722.png" class="bbCodeImage LbImage" alt="[​IMG]" data-url="https://i.postimg.cc/9DWJvJwN/vlcsnap-error722.png"></a> <br>
<br>
<i><br>
Surrender My Heart<br>
Joshua Tree<br>
Run Away With Me<br>
Too Much<br>
Shy Boy (Live debut)<br>
Talking to Yourself<br>
Call Me Maybe<br>
Bends<br>
Western Wind<br>
I Really Like You<br>
Want You in My Room<br>
I Didn't Just Come Here to Dance<br>
Now That I Found You<br>
Beach House<br>
The Loneliest Time<br>
Cut to the Feeling<br>
</i><br>
<br>
​</div><br>
<div class="bbCodeBlock bbCodeCode">
<div class="type">Code:</div>
<pre>General
Complete name                            : D:\Carly Rae Jepsen - Live @ Glastonbury 2023 WEB-DL H264 1080p AAC2.0-ilya2129.mp4
Format                                   : MPEG-4
Format profile                           : Base Media
Codec ID                                 : isom (isom/iso2/avc1/mp41)
File size                                : 4.58 GiB
Duration                                 : 56 min 0 s
Overall bit rate mode                    : Variable
Overall bit rate                         : 11.7 Mb/s
Frame rate                               : 50.000 FPS
Collection                               : Glastonbury: 2023
Season                                   : 2023
Album                                    : Glastonbury: 2023
Album/Performer                          : BBC TV
Part/Position                            : 2023
Track name                               : Carly Rae Jepsen
Grouping                                 : Music,Pop &amp; Chart,Performances &amp; Events
Performer                                : BBC Music
Composer                                 : BBC iPlayer
Genre                                    : Music
ContentType                              : TV Show
Description                              : Joyful, nostalgic pop from the singer of Call Me Maybe.
Recorded date                            : 2023-06-24 07:30:23 UTC
Tagged date                              : 2023-06-24 07:30:23 UTC
Copyright                                : 2023 British Broadcasting Corporation, all rights reserved
Cover                                    : Yes
Lyrics                                   : Joyful, nostalgic pop from the singer of Call Me Maybe. /  / PLAY: https://www.bbc.co.uk/iplayer/episode/p0ft0mj7 /  / INFO: https://www.bbc.co.uk/programmes/p0ft0mj7
Comment                                  : Joyful, nostalgic pop from the singer of Call Me Maybe.
Part_ID                                  : p0ft0mj7
TVNetworkName                            : BBC Music
LongDescription                          : Joyful, nostalgic pop from the singer of Call Me Maybe. /  / PLAY: https://www.bbc.co.uk/iplayer/episode/p0ft0mj7 /  / INFO: https://www.bbc.co.uk/programmes/p0ft0mj7

Video
ID                                       : 1
Format                                   : AVC
Format/Info                              : Advanced Video Codec
Format profile                           : High@L4.2
Format settings                          : CABAC / 4 Ref Frames
Format settings, CABAC                   : Yes
Format settings, Reference frames        : 4 frames
Codec ID                                 : avc1
Codec ID/Info                            : Advanced Video Coding
Duration                                 : 56 min 0 s
Bit rate mode                            : Variable
Bit rate                                 : 11.6 Mb/s
Maximum bit rate                         : 12.0 Mb/s
Width                                    : 1 920 pixels
Height                                   : 1 080 pixels
Display aspect ratio                     : 16:9
Frame rate mode                          : Constant
Frame rate                               : 50.000 FPS
Color space                              : YUV
Chroma subsampling                       : 4:2:0
Bit depth                                : 8 bits
Scan type                                : Progressive
Bits/(Pixel*Frame)                       : 0.112
Stream size                              : 4.53 GiB (99%)
Color range                              : Limited
Color primaries                          : BT.709
Transfer characteristics                 : BT.709
Matrix coefficients                      : BT.709
Codec configuration box                  : avcC

Audio
ID                                       : 2
Format                                   : AAC LC
Format/Info                              : Advanced Audio Codec Low Complexity
Codec ID                                 : mp4a-40-2
Duration                                 : 56 min 0 s
Bit rate mode                            : Variable
Bit rate                                 : 128 kb/s
Maximum bit rate                         : 131 kb/s
Channel(s)                               : 2 channels
Channel layout                           : L R
Sampling rate                            : 48.0 kHz
Frame rate                               : 46.875 FPS (1024 SPF)
Compression mode                         : Lossy
Stream size                              : 51.3 MiB (1%)
Language                                 : English
Default                                  : Yes
Alternate group                          : 1

</pre>
</div>
<div class="bbCodeBlock bbCodeVfcHH HiddenContent">
<div class="attribution type">Hidden Content:</div>
<blockquote>You must reply before you can see the hidden data contained here.</blockquote>
</div>
<div class="messageTextEndMarker">&nbsp;</div>
</blockquote>
</article>]]></description>
                <author><![CDATA[ilya2129]]></author>
                </item>

                
                <item>
                <title><![CDATA[【HD Live Performances】FEED - Foo Fighters - Live @ Glastonbury 2023 FEED HDTV H264 422 1080i MP2-ilya2129]]></title>
                <link><![CDATA[https://sharemania.us/threads/foo-fighters-live-glastonbury-2023-feed-hdtv-h264-422-1080i-mp2-ilya2129.223271/]]></link>
                <description><![CDATA[<article>
<blockquote class="messageText SelectQuoteContainer ugc baseHtml">
<div style="text-align: center"><img src="https://i122.fastpic.org/big/2023/0623/b4/b37c6294354538a70aac338bdf3af5b4.png?r=1" class="bbCodeImage LbImage" alt="[​IMG]" data-url="https://i122.fastpic.org/big/2023/0623/b4/b37c6294354538a70aac338bdf3af5b4.png?r=1" style=""><br>
<br>
<a href="https://postimg.cc/34NDQD3G" target="_blank" class="externalLink" rel="nofollow"><img src="https://i.postimg.cc/34NDQD3G/vlcsnap-error335.png" class="bbCodeImage LbImage" alt="[​IMG]" data-url="https://i.postimg.cc/34NDQD3G/vlcsnap-error335.png"></a> <a href="https://postimg.cc/WqJFhLFb" target="_blank" class="externalLink" rel="nofollow"><img src="https://i.postimg.cc/WqJFhLFb/vlcsnap-error406.png" class="bbCodeImage LbImage" alt="[​IMG]" data-url="https://i.postimg.cc/WqJFhLFb/vlcsnap-error406.png"></a> <a href="https://postimg.cc/MXcjsRP2" target="_blank" class="externalLink" rel="nofollow"><img src="https://i.postimg.cc/MXcjsRP2/vlcsnap-error495.png" class="bbCodeImage LbImage" alt="[​IMG]" data-url="https://i.postimg.cc/MXcjsRP2/vlcsnap-error495.png"></a> <a href="https://postimg.cc/K4d3CzwK" target="_blank" class="externalLink" rel="nofollow"><img src="https://i.postimg.cc/K4d3CzwK/vlcsnap-error547.png" class="bbCodeImage LbImage" alt="[​IMG]" data-url="https://i.postimg.cc/K4d3CzwK/vlcsnap-error547.png"></a> <a href="https://postimg.cc/xJZNfTd4" target="_blank" class="externalLink" rel="nofollow"><img src="https://i.postimg.cc/xJZNfTd4/vlcsnap-error592.png" class="bbCodeImage LbImage" alt="[​IMG]" data-url="https://i.postimg.cc/xJZNfTd4/vlcsnap-error592.png"></a> <br>
<br>
<i><br>
All My Life<br>
No Son of Mine<br>
Learn to Fly<br>
Rescued<br>
The Pretender<br>
My Hero<br>
Show Me How (with Violet Grohl)<br>
Best of You<br>
Everlong (dedicated to Taylor Hawkins)<br>
</i><br>
<br>
​</div><br>
<div class="bbCodeBlock bbCodeCode">
<div class="type">Code:</div>
<pre>General
ID                                       : 1 (0x1)
Complete name                            : D:\Foo Fighters - Live @ Glastonbury 2023 FEED HDTV H264 422 1080i MP2-ilya2129.ts
Format                                   : MPEG-TS
File size                                : 11.9 GiB
Duration                                 : 58 min 19 s
Overall bit rate mode                    : Variable
Overall bit rate                         : 29.3 Mb/s
Frame rate                               : 25.000 FPS

Video
ID                                       : 100 (0x64)
Menu ID                                  : 1 (0x1)
Format                                   : AVC
Format/Info                              : Advanced Video Codec
Format profile                           : High 4:2:2@L5.1
Format settings                          : CABAC / 2 Ref Frames
Format settings, CABAC                   : Yes
Format settings, Reference frames        : 2 frames
Codec ID                                 : 27
Duration                                 : 58 min 19 s
Bit rate                                 : 27.6 Mb/s
Width                                    : 1 920 pixels
Height                                   : 1 080 pixels
Display aspect ratio                     : 16:9
Frame rate                               : 25.000 FPS
Color space                              : YUV
Chroma subsampling                       : 4:2:2
Bit depth                                : 8 bits
Scan type                                : Interlaced
Scan type, store method                  : Separated fields
Scan order                               : Top Field First
Bits/(Pixel*Frame)                       : 0.532
Stream size                              : 11.2 GiB (94%)
Color range                              : Limited
Color primaries                          : BT.709
Transfer characteristics                 : BT.709
Matrix coefficients                      : BT.709

Audio
ID                                       : 200 (0xC8)
Menu ID                                  : 1 (0x1)
Format                                   : MPEG Audio
Format version                           : Version 1
Format profile                           : Layer 2
Codec ID                                 : 3
Duration                                 : 58 min 19 s
Bit rate mode                            : Constant
Bit rate                                 : 256 kb/s
Channel(s)                               : 2 channels
Sampling rate                            : 48.0 kHz
Frame rate                               : 41.667 FPS (1152 SPF)
Compression mode                         : Lossy
Delay relative to video                  : 10 ms
Stream size                              : 107 MiB (1%)
Language                                 : English
Language, more info                      : Clean effects
</pre>
</div>
<div class="bbCodeBlock bbCodeVfcHH HiddenContent">
<div class="attribution type">Hidden Content:</div>
<blockquote>You must reply before you can see the hidden data contained here.</blockquote>
</div>
<div class="messageTextEndMarker">&nbsp;</div>
</blockquote>
</article>]]></description>
                <author><![CDATA[ilya2129]]></author>
                </item>

                
                <item>
                <title><![CDATA[【Cinema Center】MOVIE - Deleted]]></title>
                <link><![CDATA[https://sharemania.us/threads/deleted.223259/]]></link>
                <description><![CDATA[<article>
<blockquote class="messageText SelectQuoteContainer ugc baseHtml">
.....
<div class="messageTextEndMarker">&nbsp;</div>
</blockquote>
</article>]]></description>
                <author><![CDATA[Cauã]]></author>
                </item>

                </channel></rss>